<svg xmlns="http://www.w3.org/2000/svg" viewBox="0 0 800 420" width="800" height="420">
  <defs>
    <radialGradient id="bg4" cx="50%" cy="20%" r="70%">
      <stop offset="0%" stop-color="#0f2a4a" stop-opacity="0.8"/>
      <stop offset="100%" stop-color="#09090b" stop-opacity="1"/>
    </radialGradient>
  </defs>
  <rect width="800" height="420" fill="url(#bg4)" rx="12"/>

  <text x="400" y="28" text-anchor="middle" font-family="monospace" font-size="11" fill="#a1a1aa" letter-spacing="2">ARCHITECTURE NEXT.JS 15 — APP ROUTER</text>

  <!-- Layer: Client -->
  <rect x="20" y="42" width="760" height="70" rx="8" fill="#111113" stroke="#27272a"/>
  <text x="40" y="62" font-family="monospace" font-size="10" fill="#71717a" font-weight="600">CLIENT LAYER</text>
  <!-- Browser components -->
  <rect x="40" y="68" width="90" height="30" rx="5" fill="#0f172a" stroke="#3b82f6"/>
  <text x="85" y="88" text-anchor="middle" font-family="monospace" font-size="9" fill="#93c5fd">'use client'</text>
  <rect x="142" y="68" width="90" height="30" rx="5" fill="#0f172a" stroke="#3b82f6"/>
  <text x="187" y="88" text-anchor="middle" font-family="monospace" font-size="9" fill="#93c5fd">DnD Planner</text>
  <rect x="244" y="68" width="90" height="30" rx="5" fill="#0f172a" stroke="#3b82f6"/>
  <text x="289" y="88" text-anchor="middle" font-family="monospace" font-size="9" fill="#93c5fd">Charts (recharts)</text>
  <rect x="346" y="68" width="90" height="30" rx="5" fill="#0f172a" stroke="#3b82f6"/>
  <text x="391" y="88" text-anchor="middle" font-family="monospace" font-size="9" fill="#93c5fd">Toast / Modals</text>
  <rect x="448" y="68" width="100" height="30" rx="5" fill="#0f172a" stroke="#3b82f6"/>
  <text x="498" y="88" text-anchor="middle" font-family="monospace" font-size="9" fill="#93c5fd">Stripe Elements</text>
  <rect x="560" y="68" width="100" height="30" rx="5" fill="#1e1030" stroke="#a855f7"/>
  <text x="610" y="80" text-anchor="middle" font-family="monospace" font-size="9" fill="#c4b5fd">Zustand</text>
  <text x="610" y="92" text-anchor="middle" font-family="monospace" font-size="8" fill="#a855f7">State global</text>
  <rect x="672" y="68" width="90" height="30" rx="5" fill="#1e1030" stroke="#a855f7"/>
  <text x="717" y="80" text-anchor="middle" font-family="monospace" font-size="9" fill="#c4b5fd">React Query</text>
  <text x="717" y="92" text-anchor="middle" font-family="monospace" font-size="8" fill="#a855f7">Cache client</text>

  <!-- Arrow down -->
  <line x1="400" y1="112" x2="400" y2="128" stroke="#27272a" stroke-width="1.5"/>
  <polygon points="400,128 395,122 405,122" fill="#27272a"/>

  <!-- Layer: RSC / App Router -->
  <rect x="20" y="130" width="760" height="80" rx="8" fill="#111113" stroke="#1e3a5f"/>
  <text x="40" y="150" font-family="monospace" font-size="10" fill="#93c5fd" font-weight="600">SERVER LAYER — React Server Components (App Router)</text>

  <rect x="40" y="156" width="110" height="42" rx="5" fill="#0d1520" stroke="#3b82f6" stroke-width="1.5"/>
  <text x="95" y="172" text-anchor="middle" font-family="monospace" font-size="9" fill="#60a5fa">app/</text>
  <text x="95" y="186" text-anchor="middle" font-family="monospace" font-size="8" fill="#a1a1aa">layout.tsx</text>
  <text x="95" y="196" text-anchor="middle" font-family="monospace" font-size="8" fill="#a1a1aa">page.tsx</text>

  <rect x="162" y="156" width="120" height="42" rx="5" fill="#0d1520" stroke="#3b82f6" stroke-width="1.5"/>
  <text x="222" y="168" text-anchor="middle" font-family="monospace" font-size="9" fill="#60a5fa">Route Groups</text>
  <text x="222" y="180" text-anchor="middle" font-family="monospace" font-size="8" fill="#a1a1aa">(auth)/login</text>
  <text x="222" y="192" text-anchor="middle" font-family="monospace" font-size="8" fill="#a1a1aa">(dashboard)/</text>

  <rect x="294" y="156" width="120" height="42" rx="5" fill="#0d1520" stroke="#22c55e" stroke-width="1.5"/>
  <text x="354" y="168" text-anchor="middle" font-family="monospace" font-size="9" fill="#86efac">Server Actions</text>
  <text x="354" y="180" text-anchor="middle" font-family="monospace" font-size="8" fill="#a1a1aa">'use server'</text>
  <text x="354" y="192" text-anchor="middle" font-family="monospace" font-size="8" fill="#a1a1aa">Form mutations</text>

  <rect x="426" y="156" width="120" height="42" rx="5" fill="#1e1030" stroke="#a855f7" stroke-width="1.5"/>
  <text x="486" y="168" text-anchor="middle" font-family="monospace" font-size="9" fill="#c4b5fd">Middleware</text>
  <text x="486" y="180" text-anchor="middle" font-family="monospace" font-size="8" fill="#a1a1aa">Auth check</text>
  <text x="486" y="192" text-anchor="middle" font-family="monospace" font-size="8" fill="#a1a1aa">Tenant routing</text>

  <rect x="558" y="156" width="100" height="42" rx="5" fill="#2d1f0a" stroke="#f59e0b" stroke-width="1.5"/>
  <text x="608" y="168" text-anchor="middle" font-family="monospace" font-size="9" fill="#fcd34d">API Routes</text>
  <text x="608" y="180" text-anchor="middle" font-family="monospace" font-size="8" fill="#a1a1aa">route.ts</text>
  <text x="608" y="192" text-anchor="middle" font-family="monospace" font-size="8" fill="#a1a1aa">REST + Webhooks</text>

  <rect x="670" y="156" width="92" height="42" rx="5" fill="#0d1f0d" stroke="#22c55e" stroke-width="1"/>
  <text x="716" y="168" text-anchor="middle" font-family="monospace" font-size="9" fill="#86efac">Metadata</text>
  <text x="716" y="180" text-anchor="middle" font-family="monospace" font-size="8" fill="#a1a1aa">SEO auto</text>
  <text x="716" y="192" text-anchor="middle" font-family="monospace" font-size="8" fill="#a1a1aa">OG images</text>

  <!-- Arrow down -->
  <line x1="400" y1="210" x2="400" y2="228" stroke="#27272a" stroke-width="1.5"/>
  <polygon points="400,228 395,222 405,222" fill="#27272a"/>

  <!-- Layer: Data / Services -->
  <rect x="20" y="230" width="760" height="70" rx="8" fill="#111113" stroke="#14532d"/>
  <text x="40" y="250" font-family="monospace" font-size="10" fill="#86efac" font-weight="600">DATA LAYER</text>

  <rect x="40" y="256" width="140" height="34" rx="5" fill="#0d1f0d" stroke="#22c55e" stroke-width="1.5"/>
  <text x="110" y="270" text-anchor="middle" font-family="monospace" font-size="10" fill="#86efac" font-weight="600">Prisma ORM</text>
  <text x="110" y="284" text-anchor="middle" font-family="monospace" font-size="8" fill="#a1a1aa">Type-safe queries</text>

  <rect x="192" y="256" width="140" height="34" rx="5" fill="#1e1030" stroke="#a855f7"/>
  <text x="262" y="270" text-anchor="middle" font-family="monospace" font-size="10" fill="#c4b5fd">PostgreSQL</text>
  <text x="262" y="284" text-anchor="middle" font-family="monospace" font-size="8" fill="#a1a1aa">Multi-tenant RLS</text>

  <rect x="344" y="256" width="140" height="34" rx="5" fill="#0f172a" stroke="#3b82f6"/>
  <text x="414" y="270" text-anchor="middle" font-family="monospace" font-size="10" fill="#60a5fa">NextAuth.js</text>
  <text x="414" y="284" text-anchor="middle" font-family="monospace" font-size="8" fill="#a1a1aa">JWT Sessions</text>

  <rect x="496" y="256" width="140" height="34" rx="5" fill="#2d1f0a" stroke="#f59e0b"/>
  <text x="566" y="270" text-anchor="middle" font-family="monospace" font-size="10" fill="#fcd34d">Stripe SDK</text>
  <text x="566" y="284" text-anchor="middle" font-family="monospace" font-size="8" fill="#a1a1aa">Subscriptions</text>

  <rect x="648" y="256" width="114" height="34" rx="5" fill="#1e1030" stroke="#a855f7"/>
  <text x="705" y="270" text-anchor="middle" font-family="monospace" font-size="10" fill="#c4b5fd">Resend</text>
  <text x="705" y="284" text-anchor="middle" font-family="monospace" font-size="8" fill="#a1a1aa">Emails transac.</text>

  <!-- Arrow down -->
  <line x1="400" y1="300" x2="400" y2="318" stroke="#27272a" stroke-width="1.5"/>
  <polygon points="400,318 395,312 405,312" fill="#27272a"/>

  <!-- Layer: Infra -->
  <rect x="20" y="320" width="760" height="52" rx="8" fill="#111113" stroke="#27272a"/>
  <text x="40" y="340" font-family="monospace" font-size="10" fill="#71717a" font-weight="600">INFRA — VPS OVH</text>

  <rect x="40" y="346" width="90" height="20" rx="4" fill="#1c1c1e" stroke="#3f3f46"/>
  <text x="85" y="360" text-anchor="middle" font-family="monospace" font-size="9" fill="#71717a">Docker</text>

  <rect x="142" y="346" width="90" height="20" rx="4" fill="#1c1c1e" stroke="#3f3f46"/>
  <text x="187" y="360" text-anchor="middle" font-family="monospace" font-size="9" fill="#71717a">Nginx</text>

  <rect x="244" y="346" width="90" height="20" rx="4" fill="#1c1c1e" stroke="#3f3f46"/>
  <text x="289" y="360" text-anchor="middle" font-family="monospace" font-size="9" fill="#71717a">SSL (Let's Encrypt)</text>

  <rect x="346" y="346" width="120" height="20" rx="4" fill="#1c1c1e" stroke="#3f3f46"/>
  <text x="406" y="360" text-anchor="middle" font-family="monospace" font-size="9" fill="#71717a">GitHub Actions CI/CD</text>

  <rect x="478" y="346" width="90" height="20" rx="4" fill="#1c1c1e" stroke="#3f3f46"/>
  <text x="523" y="360" text-anchor="middle" font-family="monospace" font-size="9" fill="#71717a">Backups auto</text>

  <rect x="580" y="346" width="180" height="20" rx="4" fill="#0d1f0d" stroke="#22c55e" opacity="0.8"/>
  <text x="670" y="360" text-anchor="middle" font-family="monospace" font-size="9" fill="#86efac">smartplanning.fr ✓ live</text>

  <!-- Badge -->
  <rect x="20" y="382" width="200" height="24" rx="5" fill="#1e3a5f" opacity="0.5"/>
  <text x="120" y="398" text-anchor="middle" font-family="monospace" font-size="10" fill="#93c5fd">04 — Architecture Next.js</text>
</svg>
