<svg xmlns="http://www.w3.org/2000/svg" viewBox="0 0 800 420" width="800" height="420">
  <defs>
    <radialGradient id="bg3" cx="50%" cy="50%" r="55%">
      <stop offset="0%" stop-color="#1a0a2e" stop-opacity="0.8"/>
      <stop offset="100%" stop-color="#09090b" stop-opacity="1"/>
    </radialGradient>
  </defs>
  <rect width="800" height="420" fill="url(#bg3)" rx="12"/>

  <!-- Label -->
  <text x="400" y="30" text-anchor="middle" font-family="monospace" font-size="11" fill="#a1a1aa" letter-spacing="2">SCHÉMA BASE DE DONNÉES — PRISMA ORM</text>

  <!-- Table: Organization -->
  <rect x="30" y="50" width="170" height="170" rx="8" fill="#18181b" stroke="#a855f7" stroke-width="1.5"/>
  <rect x="30" y="50" width="170" height="30" rx="8" fill="#2d1f6b"/>
  <rect x="30" y="72" width="170" height="8" rx="0" fill="#2d1f6b"/>
  <text x="115" y="70" text-anchor="middle" font-family="monospace" font-size="12" fill="#c4b5fd" font-weight="700">Organization</text>
  <line x1="30" y1="82" x2="200" y2="82" stroke="#27272a" stroke-width="1"/>
  <text x="45" y="98" font-family="monospace" font-size="10" fill="#f59e0b">🔑 id</text>
  <text x="120" y="98" font-family="monospace" font-size="9" fill="#71717a">String @id</text>
  <text x="45" y="114" font-family="monospace" font-size="10" fill="#a1a1aa">name</text>
  <text x="120" y="114" font-family="monospace" font-size="9" fill="#71717a">String</text>
  <text x="45" y="130" font-family="monospace" font-size="10" fill="#a1a1aa">slug</text>
  <text x="120" y="130" font-family="monospace" font-size="9" fill="#71717a">String @unique</text>
  <text x="45" y="146" font-family="monospace" font-size="10" fill="#a1a1aa">plan</text>
  <text x="120" y="146" font-family="monospace" font-size="9" fill="#71717a">PlanType</text>
  <text x="45" y="162" font-family="monospace" font-size="10" fill="#a1a1aa">createdAt</text>
  <text x="120" y="162" font-family="monospace" font-size="9" fill="#71717a">DateTime</text>
  <line x1="30" y1="170" x2="200" y2="170" stroke="#27272a" stroke-width="1" stroke-dasharray="3,2"/>
  <text x="45" y="185" font-family="monospace" font-size="9" fill="#60a5fa">users    User[]</text>
  <text x="45" y="200" font-family="monospace" font-size="9" fill="#60a5fa">teams    Team[]</text>

  <!-- Table: User -->
  <rect x="310" y="40" width="180" height="200" rx="8" fill="#18181b" stroke="#3b82f6" stroke-width="2"/>
  <rect x="310" y="40" width="180" height="30" rx="8" fill="#1e3a5f"/>
  <rect x="310" y="62" width="180" height="8" rx="0" fill="#1e3a5f"/>
  <text x="400" y="60" text-anchor="middle" font-family="monospace" font-size="12" fill="#93c5fd" font-weight="700">User</text>
  <line x1="310" y1="72" x2="490" y2="72" stroke="#27272a" stroke-width="1"/>
  <text x="325" y="88" font-family="monospace" font-size="10" fill="#f59e0b">🔑 id</text>
  <text x="400" y="88" font-family="monospace" font-size="9" fill="#71717a">String @id</text>
  <text x="325" y="104" font-family="monospace" font-size="10" fill="#a1a1aa">email</text>
  <text x="400" y="104" font-family="monospace" font-size="9" fill="#71717a">String @unique</text>
  <text x="325" y="120" font-family="monospace" font-size="10" fill="#a1a1aa">name</text>
  <text x="400" y="120" font-family="monospace" font-size="9" fill="#71717a">String</text>
  <text x="325" y="136" font-family="monospace" font-size="10" fill="#a1a1aa">role</text>
  <text x="400" y="136" font-family="monospace" font-size="9" fill="#71717a">Role</text>
  <text x="325" y="152" font-family="monospace" font-size="10" fill="#86efac">🔗 orgId</text>
  <text x="400" y="152" font-family="monospace" font-size="9" fill="#71717a">String</text>
  <text x="325" y="168" font-family="monospace" font-size="10" fill="#86efac">🔗 teamId</text>
  <text x="400" y="168" font-family="monospace" font-size="9" fill="#71717a">String?</text>
  <line x1="310" y1="176" x2="490" y2="176" stroke="#27272a" stroke-width="1" stroke-dasharray="3,2"/>
  <text x="325" y="192" font-family="monospace" font-size="9" fill="#60a5fa">org       Organization</text>
  <text x="325" y="208" font-family="monospace" font-size="9" fill="#60a5fa">shifts    Shift[]</text>

  <!-- Table: Team -->
  <rect x="30" y="260" width="170" height="140" rx="8" fill="#18181b" stroke="#22c55e" stroke-width="1.5"/>
  <rect x="30" y="260" width="170" height="30" rx="8" fill="#14532d"/>
  <rect x="30" y="282" width="170" height="8" rx="0" fill="#14532d"/>
  <text x="115" y="280" text-anchor="middle" font-family="monospace" font-size="12" fill="#86efac" font-weight="700">Team</text>
  <line x1="30" y1="292" x2="200" y2="292" stroke="#27272a" stroke-width="1"/>
  <text x="45" y="308" font-family="monospace" font-size="10" fill="#f59e0b">🔑 id</text>
  <text x="120" y="308" font-family="monospace" font-size="9" fill="#71717a">String @id</text>
  <text x="45" y="324" font-family="monospace" font-size="10" fill="#a1a1aa">name</text>
  <text x="120" y="324" font-family="monospace" font-size="9" fill="#71717a">String</text>
  <text x="45" y="340" font-family="monospace" font-size="10" fill="#86efac">🔗 orgId</text>
  <text x="120" y="340" font-family="monospace" font-size="9" fill="#71717a">String</text>
  <line x1="30" y1="348" x2="200" y2="348" stroke="#27272a" stroke-width="1" stroke-dasharray="3,2"/>
  <text x="45" y="364" font-family="monospace" font-size="9" fill="#60a5fa">members  User[]</text>
  <text x="45" y="380" font-family="monospace" font-size="9" fill="#60a5fa">shifts   Shift[]</text>

  <!-- Table: Shift -->
  <rect x="310" y="270" width="185" height="135" rx="8" fill="#18181b" stroke="#f59e0b" stroke-width="1.5"/>
  <rect x="310" y="270" width="185" height="30" rx="8" fill="#2d1f0a"/>
  <rect x="310" y="292" width="185" height="8" rx="0" fill="#2d1f0a"/>
  <text x="402" y="290" text-anchor="middle" font-family="monospace" font-size="12" fill="#fcd34d" font-weight="700">Shift</text>
  <line x1="310" y1="300" x2="495" y2="300" stroke="#27272a" stroke-width="1"/>
  <text x="325" y="316" font-family="monospace" font-size="10" fill="#f59e0b">🔑 id</text>
  <text x="405" y="316" font-family="monospace" font-size="9" fill="#71717a">String @id</text>
  <text x="325" y="332" font-family="monospace" font-size="10" fill="#a1a1aa">startAt</text>
  <text x="405" y="332" font-family="monospace" font-size="9" fill="#71717a">DateTime</text>
  <text x="325" y="348" font-family="monospace" font-size="10" fill="#a1a1aa">endAt</text>
  <text x="405" y="348" font-family="monospace" font-size="9" fill="#71717a">DateTime</text>
  <text x="325" y="364" font-family="monospace" font-size="10" fill="#86efac">🔗 userId</text>
  <text x="405" y="364" font-family="monospace" font-size="9" fill="#71717a">String</text>
  <text x="325" y="380" font-family="monospace" font-size="10" fill="#86efac">🔗 teamId</text>
  <text x="405" y="380" font-family="monospace" font-size="9" fill="#71717a">String</text>

  <!-- Relations arrows -->
  <!-- Org -> User -->
  <line x1="200" y1="130" x2="310" y2="130" stroke="#a855f7" stroke-width="1.5" stroke-dasharray="5,3"/>
  <circle cx="200" cy="130" r="3" fill="#a855f7"/>
  <polygon points="310,130 302,125 302,135" fill="#a855f7"/>
  <text x="255" y="124" text-anchor="middle" font-family="monospace" font-size="9" fill="#a855f7">1..n</text>

  <!-- Org -> Team -->
  <line x1="115" y1="220" x2="115" y2="260" stroke="#22c55e" stroke-width="1.5" stroke-dasharray="5,3"/>
  <circle cx="115" cy="220" r="3" fill="#22c55e"/>
  <polygon points="115,260 110,252 120,252" fill="#22c55e"/>
  <text x="130" y="244" font-family="monospace" font-size="9" fill="#22c55e">1..n</text>

  <!-- User -> Shift -->
  <line x1="400" y1="240" x2="400" y2="270" stroke="#f59e0b" stroke-width="1.5" stroke-dasharray="5,3"/>
  <circle cx="400" cy="240" r="3" fill="#f59e0b"/>
  <polygon points="400,270 395,262 405,262" fill="#f59e0b"/>
  <text x="415" y="258" font-family="monospace" font-size="9" fill="#f59e0b">1..n</text>

  <!-- Team -> Shift -->
  <line x1="200" y1="340" x2="310" y2="340" stroke="#22c55e" stroke-width="1.5" stroke-dasharray="5,3"/>
  <circle cx="200" cy="340" r="3" fill="#22c55e"/>
  <polygon points="310,340 302,335 302,345" fill="#22c55e"/>
  <text x="255" y="334" text-anchor="middle" font-family="monospace" font-size="9" fill="#22c55e">1..n</text>

  <!-- Prisma badge -->
  <rect x="560" y="50" width="210" height="310" rx="10" fill="#0d0d0f" stroke="#27272a"/>
  <text x="665" y="76" text-anchor="middle" font-family="monospace" font-size="11" fill="#a1a1aa" font-weight="600">schema.prisma</text>
  <line x1="575" y1="84" x2="755" y2="84" stroke="#27272a" stroke-width="1"/>

  <text x="575" y="104" font-family="monospace" font-size="9" fill="#a855f7">model</text>
  <text x="612" y="104" font-family="monospace" font-size="9" fill="#fafafa">User</text>
  <text x="640" y="104" font-family="monospace" font-size="9" fill="#a1a1aa">{</text>

  <text x="585" y="120" font-family="monospace" font-size="9" fill="#60a5fa">id</text>
  <text x="605" y="120" font-family="monospace" font-size="9" fill="#a1a1aa">String</text>
  <text x="650" y="120" font-family="monospace" font-size="9" fill="#86efac">@id @default(cuid())</text>

  <text x="585" y="136" font-family="monospace" font-size="9" fill="#60a5fa">email</text>
  <text x="615" y="136" font-family="monospace" font-size="9" fill="#a1a1aa">String</text>
  <text x="650" y="136" font-family="monospace" font-size="9" fill="#86efac">@unique</text>

  <text x="585" y="152" font-family="monospace" font-size="9" fill="#60a5fa">role</text>
  <text x="612" y="152" font-family="monospace" font-size="9" fill="#fcd34d">Role</text>

  <text x="585" y="168" font-family="monospace" font-size="9" fill="#60a5fa">orgId</text>
  <text x="620" y="168" font-family="monospace" font-size="9" fill="#a1a1aa">String</text>

  <text x="585" y="184" font-family="monospace" font-size="9" fill="#60a5fa">org</text>
  <text x="605" y="184" font-family="monospace" font-size="9" fill="#fcd34d">Organization</text>
  <text x="690" y="184" font-family="monospace" font-size="9" fill="#86efac">@relation(...)</text>

  <text x="575" y="200" font-family="monospace" font-size="9" fill="#a1a1aa">}</text>

  <line x1="575" y1="208" x2="755" y2="208" stroke="#27272a" stroke-width="1" stroke-dasharray="3,2"/>

  <text x="575" y="226" font-family="monospace" font-size="9" fill="#a855f7">enum</text>
  <text x="608" y="226" font-family="monospace" font-size="9" fill="#fafafa">Role</text>
  <text x="630" y="226" font-family="monospace" font-size="9" fill="#a1a1aa">{</text>
  <text x="585" y="242" font-family="monospace" font-size="9" fill="#fcd34d">ADMIN</text>
  <text x="585" y="258" font-family="monospace" font-size="9" fill="#fcd34d">MANAGER</text>
  <text x="585" y="274" font-family="monospace" font-size="9" fill="#fcd34d">EMPLOYEE</text>
  <text x="575" y="290" font-family="monospace" font-size="9" fill="#a1a1aa">}</text>

  <line x1="575" y1="298" x2="755" y2="298" stroke="#27272a" stroke-width="1" stroke-dasharray="3,2"/>
  <rect x="580" y="308" width="170" height="22" rx="4" fill="#1e3a5f" opacity="0.5"/>
  <text x="665" y="322" text-anchor="middle" font-family="monospace" font-size="9" fill="#93c5fd">Multi-tenant isolation ✓</text>
  <rect x="580" y="338" width="170" height="22" rx="4" fill="#14532d" opacity="0.5"/>
  <text x="665" y="352" text-anchor="middle" font-family="monospace" font-size="9" fill="#86efac">Migrations auto ✓</text>
</svg>
