<svg xmlns="http://www.w3.org/2000/svg" viewBox="0 0 800 420" width="800" height="420">
  <defs>
    <radialGradient id="bg5" cx="40%" cy="60%" r="60%">
      <stop offset="0%" stop-color="#0a1a10" stop-opacity="0.8"/>
      <stop offset="100%" stop-color="#09090b" stop-opacity="1"/>
    </radialGradient>
  </defs>
  <rect width="800" height="420" fill="url(#bg5)" rx="12"/>

  <!-- Header -->
  <text x="400" y="28" text-anchor="middle" font-family="monospace" font-size="11" fill="#a1a1aa" letter-spacing="2">FONCTIONNALITÉS CLÉS — SmartPlanning</text>

  <!-- Feature: Planner (grande, à gauche) -->
  <rect x="20" y="42" width="340" height="240" rx="10" fill="#111113" stroke="#27272a"/>
  <!-- Header simulé -->
  <rect x="20" y="42" width="340" height="36" rx="10" fill="#18181b"/>
  <rect x="20" y="68" width="340" height="10" rx="0" fill="#18181b"/>
  <text x="50" y="65" font-family="monospace" font-size="10" fill="#a1a1aa">Semaine du 7 au 13 avril 2026</text>
  <text x="330" y="65" text-anchor="end" font-family="monospace" font-size="10" fill="#3b82f6">← →</text>

  <!-- Grille planning -->
  <line x1="20" y1="90" x2="360" y2="90" stroke="#27272a" stroke-width="1"/>
  <!-- Jours -->
  <g font-family="monospace" font-size="9" fill="#71717a">
    <text x="72" y="104" text-anchor="middle">Lun</text>
    <text x="122" y="104" text-anchor="middle">Mar</text>
    <text x="172" y="104" text-anchor="middle">Mer</text>
    <text x="222" y="104" text-anchor="middle">Jeu</text>
    <text x="272" y="104" text-anchor="middle">Ven</text>
    <text x="322" y="104" text-anchor="middle">Sam</text>
  </g>
  <line x1="20" y1="108" x2="360" y2="108" stroke="#27272a" stroke-width="1"/>

  <!-- Shifts: lignes employés -->
  <text x="35" y="124" font-family="monospace" font-size="9" fill="#a1a1aa">Alice</text>
  <rect x="47" y="113" width="100" height="16" rx="3" fill="#1e3a5f" stroke="#3b82f6" stroke-width="0.5"/>
  <text x="97" y="124" text-anchor="middle" font-family="monospace" font-size="8" fill="#93c5fd">08:00 – 16:00</text>

  <text x="35" y="144" font-family="monospace" font-size="9" fill="#a1a1aa">Bob</text>
  <rect x="97" y="133" width="150" height="16" rx="3" fill="#14532d" stroke="#22c55e" stroke-width="0.5"/>
  <text x="172" y="144" text-anchor="middle" font-family="monospace" font-size="8" fill="#86efac">10:00 – 18:00</text>

  <text x="35" y="164" font-family="monospace" font-size="9" fill="#a1a1aa">Carol</text>
  <rect x="47" y="153" width="75" height="16" rx="3" fill="#2d1f0a" stroke="#f59e0b" stroke-width="0.5"/>
  <text x="84" y="164" text-anchor="middle" font-family="monospace" font-size="8" fill="#fcd34d">08–12</text>
  <rect x="147" y="153" width="75" height="16" rx="3" fill="#2d1f0a" stroke="#f59e0b" stroke-width="0.5"/>
  <text x="184" y="164" text-anchor="middle" font-family="monospace" font-size="8" fill="#fcd34d">14–18</text>

  <text x="35" y="184" font-family="monospace" font-size="9" fill="#a1a1aa">Dave</text>
  <rect x="247" y="173" width="100" height="16" rx="3" fill="#1a1030" stroke="#a855f7" stroke-width="0.5"/>
  <text x="297" y="184" text-anchor="middle" font-family="monospace" font-size="8" fill="#c4b5fd">14:00 – 22:00</text>

  <text x="35" y="204" font-family="monospace" font-size="9" fill="#71717a">Eve</text>
  <rect x="47" y="193" width="275" height="16" rx="3" fill="#1c1c1e" stroke="#3f3f46" stroke-dasharray="3,2"/>
  <text x="184" y="204" text-anchor="middle" font-family="monospace" font-size="8" fill="#52525b">Congé</text>

  <line x1="20" y1="218" x2="360" y2="218" stroke="#27272a" stroke-width="1"/>
  <!-- Stats bas -->
  <text x="35" y="234" font-family="monospace" font-size="9" fill="#71717a">Total semaine :</text>
  <text x="140" y="234" font-family="monospace" font-size="9" fill="#3b82f6" font-weight="600">168h planifiées</text>
  <text x="250" y="234" font-family="monospace" font-size="9" fill="#22c55e">4/5 employés</text>
  <text x="35" y="252" font-family="monospace" font-size="8" fill="#22c55e">✓ Planning exportable (PDF / iCal)</text>

  <text x="190" y="272" text-anchor="middle" font-family="monospace" font-size="10" fill="#3b82f6">📅 Plannings drag &amp; drop</text>

  <!-- Feature: Stripe -->
  <rect x="372" y="42" width="200" height="130" rx="10" fill="#111113" stroke="#22c55e" stroke-width="1.5"/>
  <text x="472" y="66" text-anchor="middle" font-family="monospace" font-size="11" fill="#86efac" font-weight="600">Stripe Billing</text>
  <line x1="372" y1="72" x2="572" y2="72" stroke="#27272a" stroke-width="1"/>

  <rect x="388" y="82" width="156" height="28" rx="5" fill="#14532d" stroke="#22c55e"/>
  <text x="466" y="93" text-anchor="middle" font-family="monospace" font-size="9" fill="#fafafa">Plan Pro — 29€/mois</text>
  <text x="466" y="104" text-anchor="middle" font-family="monospace" font-size="8" fill="#86efac">✓ Actif • Renouvelle le 15/05</text>

  <rect x="388" y="118" width="72" height="22" rx="4" fill="#1e3a5f"/>
  <text x="424" y="133" text-anchor="middle" font-family="monospace" font-size="8" fill="#93c5fd">Changer plan</text>
  <rect x="468" y="118" width="76" height="22" rx="4" fill="#1c1c1e" stroke="#3f3f46"/>
  <text x="506" y="133" text-anchor="middle" font-family="monospace" font-size="8" fill="#a1a1aa">Factures (3)</text>

  <text x="472" y="158" text-anchor="middle" font-family="monospace" font-size="9" fill="#22c55e">💳 Subscriptions Stripe</text>

  <!-- Feature: RGPD -->
  <rect x="372" y="182" width="200" height="100" rx="10" fill="#111113" stroke="#f59e0b" stroke-width="1.5"/>
  <text x="472" y="204" text-anchor="middle" font-family="monospace" font-size="11" fill="#fcd34d" font-weight="600">RGPD</text>
  <line x1="372" y1="210" x2="572" y2="210" stroke="#27272a" stroke-width="1"/>
  <text x="388" y="228" font-family="monospace" font-size="9" fill="#a1a1aa">✓ Consentement cookies</text>
  <text x="388" y="244" font-family="monospace" font-size="9" fill="#a1a1aa">✓ Droit à l'oubli (CRUD user)</text>
  <text x="388" y="260" font-family="monospace" font-size="9" fill="#a1a1aa">✓ Export données perso</text>
  <text x="472" y="276" text-anchor="middle" font-family="monospace" font-size="9" fill="#f59e0b">🔒 Conformité RGPD</text>

  <!-- Code block à droite -->
  <rect x="584" y="42" width="196" height="300" rx="10" fill="#0d0d0f" stroke="#27272a"/>
  <rect x="584" y="42" width="196" height="28" rx="10" fill="#18181b"/>
  <rect x="584" y="62" width="196" height="8" rx="0" fill="#18181b"/>
  <text x="682" y="60" text-anchor="middle" font-family="monospace" font-size="9" fill="#71717a">createShift.ts</text>

  <text x="596" y="86" font-family="monospace" font-size="8.5" fill="#a855f7">export async</text>
  <text x="672" y="86" font-family="monospace" font-size="8.5" fill="#60a5fa">function</text>
  <text x="714" y="86" font-family="monospace" font-size="8.5" fill="#fafafa">createShift(</text>
  <text x="608" y="100" font-family="monospace" font-size="8.5" fill="#fcd34d">data</text>
  <text x="630" y="100" font-family="monospace" font-size="8.5" fill="#71717a">: ShiftInput</text>
  <text x="596" y="114" font-family="monospace" font-size="8.5" fill="#a1a1aa">) {</text>
  <text x="608" y="128" font-family="monospace" font-size="8.5" fill="#60a5fa">const</text>
  <text x="636" y="128" font-family="monospace" font-size="8.5" fill="#fafafa">session</text>
  <text x="676" y="128" font-family="monospace" font-size="8.5" fill="#a1a1aa">=</text>
  <text x="686" y="128" font-family="monospace" font-size="8.5" fill="#60a5fa">await</text>
  <text x="608" y="142" font-family="monospace" font-size="8.5" fill="#fafafa">getServerSession()</text>
  <text x="608" y="156" font-family="monospace" font-size="8.5" fill="#a855f7">if</text>
  <text x="622" y="156" font-family="monospace" font-size="8.5" fill="#a1a1aa">(!session)</text>
  <text x="672" y="156" font-family="monospace" font-size="8.5" fill="#60a5fa">throw</text>
  <text x="608" y="170" font-family="monospace" font-size="8.5" fill="#60a5fa">new</text>
  <text x="628" y="170" font-family="monospace" font-size="8.5" fill="#fcd34d">UnauthorizedError()</text>
  <line x1="596" y1="178" x2="768" y2="178" stroke="#27272a" stroke-width="1" stroke-dasharray="3,2"/>
  <text x="608" y="194" font-family="monospace" font-size="8.5" fill="#60a5fa">return</text>
  <text x="646" y="194" font-family="monospace" font-size="8.5" fill="#fafafa">prisma.shift</text>
  <text x="608" y="208" font-family="monospace" font-size="8.5" fill="#a1a1aa">.create({</text>
  <text x="620" y="222" font-family="monospace" font-size="8.5" fill="#fcd34d">data</text>
  <text x="644" y="222" font-family="monospace" font-size="8.5" fill="#a1a1aa">: {</text>
  <text x="632" y="236" font-family="monospace" font-size="8.5" fill="#fafafa">...data,</text>
  <text x="632" y="250" font-family="monospace" font-size="8.5" fill="#fafafa">orgId</text>
  <text x="670" y="250" font-family="monospace" font-size="8.5" fill="#a1a1aa">:</text>
  <text x="680" y="250" font-family="monospace" font-size="8.5" fill="#86efac">session.orgId</text>
  <text x="620" y="264" font-family="monospace" font-size="8.5" fill="#a1a1aa">}</text>
  <text x="608" y="278" font-family="monospace" font-size="8.5" fill="#a1a1aa">})</text>
  <text x="596" y="292" font-family="monospace" font-size="8.5" fill="#a1a1aa">}</text>

  <!-- Bottom stats -->
  <rect x="20" y="295" width="340" height="60" rx="8" fill="#111113" stroke="#27272a"/>
  <g font-family="monospace" font-size="9">
    <text x="40" y="315" fill="#a1a1aa">Fonctionnalités</text>
    <text x="40" y="330" fill="#3b82f6" font-weight="600">Plannings ·</text>
    <text x="108" y="330" fill="#22c55e" font-weight="600"> Teams ·</text>
    <text x="160" y="330" fill="#f59e0b" font-weight="600"> Stripe ·</text>
    <text x="216" y="330" fill="#a855f7" font-weight="600"> Notifs ·</text>
    <text x="268" y="330" fill="#fafafa" font-weight="600"> Admin</text>
    <text x="40" y="346" fill="#71717a">TypeScript strict · tRPC · Zod validation</text>
  </g>

  <!-- Label -->
  <rect x="20" y="368" width="250" height="26" rx="5" fill="#0d1f0d" opacity="0.7"/>
  <text x="145" y="385" text-anchor="middle" font-family="monospace" font-size="10" fill="#86efac">05 — Développement des fonctionnalités</text>
</svg>
